<?xml version="1.0" encoding="UTF-8" standalone="no"?>
<!-- Created with Inkscape (http://www.inkscape.org/) -->

<svg
   xmlns:dc="http://purl.org/dc/elements/1.1/"
   xmlns:cc="http://creativecommons.org/ns#"
   xmlns:rdf="http://www.w3.org/1999/02/22-rdf-syntax-ns#"
   xmlns:svg="http://www.w3.org/2000/svg"
   xmlns="http://www.w3.org/2000/svg"
   xmlns:sodipodi="http://sodipodi.sourceforge.net/DTD/sodipodi-0.dtd"
   xmlns:inkscape="http://www.inkscape.org/namespaces/inkscape"
   width="15mm"
   height="35mm"
   viewBox="0 0 53.149595 124.01575"
   id="svg2"
   version="1.1"
   inkscape:version="0.91 r13725"
   sodipodi:docname="player.svg"
   inkscape:export-filename="D:\Programmdateien\IntelliJProjects\rope_swing\res\player.png"
   inkscape:export-xdpi="90"
   inkscape:export-ydpi="90">
  <defs
     id="defs4" />
  <sodipodi:namedview
     id="base"
     pagecolor="#ffffff"
     bordercolor="#666666"
     borderopacity="1.0"
     inkscape:pageopacity="0.0"
     inkscape:pageshadow="2"
     inkscape:zoom="0.98994949"
     inkscape:cx="44.831418"
     inkscape:cy="691.07793"
     inkscape:document-units="px"
     inkscape:current-layer="layer1"
     showgrid="false"
     inkscape:window-width="1920"
     inkscape:window-height="1017"
     inkscape:window-x="-8"
     inkscape:window-y="-8"
     inkscape:window-maximized="1" />
  <metadata
     id="metadata7">
    <rdf:RDF>
      <cc:Work
         rdf:about="">
        <dc:format>image/svg+xml</dc:format>
        <dc:type
           rdf:resource="http://purl.org/dc/dcmitype/StillImage" />
        <dc:title></dc:title>
      </cc:Work>
    </rdf:RDF>
  </metadata>
  <g
     inkscape:label="Layer 1"
     inkscape:groupmode="layer"
     id="layer1"
     transform="translate(0,-928.34646)">
    <path
       style="fill:none;fill-rule:evenodd;stroke:#000000;stroke-width:0.13464484px;stroke-linecap:butt;stroke-linejoin:miter;stroke-opacity:1"
       d="m 23.622599,29.271659 c 0,5.87476 0,11.74952 0,17.62428 0,1.27185 0,2.54371 0,3.81556 0,0.52765 0.0625,1.13347 0,1.63524 -0.0237,0.19035 -0.13575,0.36339 -0.20363,0.54508 -0.0679,0.48452 -0.17486,0.96594 -0.20363,1.45355 -0.0535,0.90721 0,1.81694 0,2.7254 0,1.8775 0,3.755 0,5.6325"
       id="path3336"
       inkscape:connector-curvature="0" />
    <path
       style="fill:none;fill-rule:evenodd;stroke:#000000;stroke-width:0.13464484px;stroke-linecap:butt;stroke-linejoin:miter;stroke-opacity:1"
       d="m 27.898859,29.816749 c 0,0.30282 0,0.60564 0,0.90846 0.0679,0.0606 0.1848,0.0977 0.20363,0.1817 0.0532,0.23755 0,0.48451 0,0.72677 0,0.36339 0,0.72678 0,1.09016 0,1.09016 0,2.18032 0,3.27049 0,3.33104 0,6.66209 0,9.99314 0,1.27185 0,2.54371 0,3.81556 0,0.24226 0,0.48452 0,0.72678 0,0.30282 0.0421,0.60798 0,0.90846 -0.0266,0.19005 -0.16524,0.35665 -0.20363,0.54508 -0.0979,0.48042 -0.16166,0.9667 -0.20364,1.45355 -0.0511,0.59267 0,1.21929 0,1.81694 0,0.12113 0,0.24226 0,0.36339 0,0.0606 0.0215,0.12423 0,0.18169 -0.048,0.12847 -0.16681,0.232 -0.20363,0.36339 -0.0494,0.17626 0,0.36338 0,0.54508 0,0.36338 0,0.72677 0,1.09016 0,1.09016 0,2.18032 0,3.27048 0,0.24226 0,0.48452 0,0.72677 0,0.0606 -0.048,0.13887 0,0.1817 0.048,0.0428 0.13576,0 0.20363,0 0.0679,0 0.13576,0 0.20364,0"
       id="path3338"
       inkscape:connector-curvature="0" />
    <path
       style="fill:none;fill-rule:evenodd;stroke:#000000;stroke-width:0.13464484px;stroke-linecap:butt;stroke-linejoin:miter;stroke-opacity:1"
       d="m 22.604449,62.703269 c -1.38428,2.88201 0.24771,-0.44696 -1.42542,2.72541 -0.28465,0.53971 -0.5551,1.08549 -0.81452,1.63524 -0.28369,0.60118 -0.50022,1.228 -0.81453,1.81693 -0.63356,1.18715 -1.94607,3.06182 -2.6472,4.17895 -0.48967,0.78022 -0.96409,1.56817 -1.42542,2.36202 -4.73805,8.15326 2.53299,-3.99551 -3.46172,5.6325 -0.36855,0.59192 -0.61871,1.24119 -1.01816,1.81693 -0.48594,0.70042 -1.0884999,1.33082 -1.6290399,1.99863 -0.34187,0.42236 -0.67473,0.85051 -1.01816,1.27186 -0.19962,0.2449 -0.43102,0.46998 -0.61089,0.72677 -0.16089,0.22968 -0.25984,0.49001 -0.40726,0.72677 -0.19222,0.30871 -0.42137,0.59844 -0.6109,0.90847 -0.21803,0.35667 -0.38146,0.73923 -0.61089,1.09016 -0.24663,0.37725 -0.53003,0.73478 -0.81452,1.09016 -0.0558,0.0697 -0.10764,0.1817 -0.20364,0.1817 -0.0679,0 0,-0.12113 0,-0.1817"
       id="path3340"
       inkscape:connector-curvature="0" />
    <path
       style="fill:none;fill-rule:evenodd;stroke:#000000;stroke-width:0.13464484px;stroke-linecap:butt;stroke-linejoin:miter;stroke-opacity:1"
       d="m 25.251649,65.610369 c -1.06089,1.26214 -0.21952,0.17088 -1.01815,1.45355 -0.19221,0.3087 -0.41147,0.60342 -0.6109,0.90846 -0.27573,0.42178 -0.51859,0.86112 -0.81452,1.27186 -0.31575,0.43825 -0.65339,0.86502 -1.01815,1.27185 -0.1799,0.20065 -0.45827,0.32719 -0.6109,0.54508 -0.19373,0.27658 -0.26667,0.60741 -0.40726,0.90847 -1.24733,2.67108 0.0229,-0.0443 -1.22179,2.36202 -0.21662,0.41879 -0.37971,0.8593 -0.61089,1.27185 -0.31253,0.55772 -0.72059,1.07104 -1.01815,1.63524 -0.24694,0.46821 -0.35154,0.99072 -0.6109,1.45355 -0.21889,0.39063 -0.59562,0.69953 -0.81452,1.09016 -0.007,0.012 -0.80337,2.15645 -0.81452,2.18033 -0.17513,0.37502 -0.45775,0.70755 -0.6109,1.09016 -0.18825,0.47033 -0.24932,0.97441 -0.40726,1.45354 -0.1817,0.55122 -0.42586,1.08491 -0.61089,1.63525 -0.22238,0.66142 -0.39828,1.33465 -0.61089,1.99863 -0.059,0.18415 -0.15158,0.35927 -0.20364,0.54508 -0.0443,0.15793 0,0.54711 0,0.72677"
       id="path3342"
       inkscape:connector-curvature="0" />
    <path
       style="fill:none;fill-rule:evenodd;stroke:#000000;stroke-width:0.13464484px;stroke-linecap:butt;stroke-linejoin:miter;stroke-opacity:1"
       d="m 26.269809,65.973759 c 0,0.60564 0,1.21129 0,1.81693 0,0.12113 -0.0429,0.24847 0,0.36339 0.0303,0.0812 0.15424,0.10825 0.20363,0.18169 1.14867,2.04984 -0.22199,-0.20462 0.81452,1.09016 0.1657,0.20699 0.85246,1.24656 1.01816,1.45355 0.19726,0.24642 0.41363,0.48036 0.61089,0.72678 0.48139,0.60133 0.94403,1.21559 1.42542,1.81693 0.19726,0.24642 0.42263,0.47481 0.61089,0.72677 0.21954,0.29384 0.39135,0.61463 0.61089,0.90847 0.10175,0.53866 0.72409,0.69658 1.01816,1.09016 0.16838,0.22537 0.27151,0.48452 0.40726,0.72678 0.13575,0.24225 0.27151,0.48451 0.40726,0.72677 0.6109,1.09016 1.22179,2.18032 1.83268,3.27048 0.27151,0.48452 0.50217,0.98904 0.81453,1.45355 3.05967,4.55009 -0.67817,-1.34022 1.83267,2.18032 0.24446,0.34277 0.34978,0.75733 0.6109,1.09017 0.22019,0.28067 0.56464,0.46664 0.81452,0.72677 1.48904,1.55006 -1.02761,-0.63018 1.22179,1.09016 0.14881,0.11381 1.00723,0.96254 1.22178,1.09016 0.11296,0.0672 0.31127,-0.0856 0.40727,0 0.048,0.0428 -0.048,0.13887 0,0.1817 0.048,0.0428 0.13575,0 0.20363,0 0.0679,0 0.13575,0 0.20363,0"
       id="path3344"
       inkscape:connector-curvature="0" />
    <path
       style="fill:none;fill-rule:evenodd;stroke:#000000;stroke-width:0.13464484px;stroke-linecap:butt;stroke-linejoin:miter;stroke-opacity:1"
       d="m 28.713379,63.975129 c 0,0.48451 0,0.96903 0,1.45355 0,0.0606 -0.0304,0.12752 0,0.18169 0.0429,0.0766 0.17328,0.10044 0.20363,0.18169 0.0429,0.11492 -0.0607,0.25505 0,0.36339 0.0304,0.0542 0.15564,-0.0428 0.20363,0 0.096,0.0856 -0.0607,0.25505 0,0.36339 0.0429,0.0766 0.13576,0.12113 0.20363,0.18169 1.18485,1.0572 -0.52311,-0.41925 1.01816,0.72677 0.22123,0.1645 0.38357,0.38733 0.61089,0.54508 0.38636,0.26813 0.85015,0.44255 1.22179,0.72678 0.99686,0.7624 1.83262,1.63518 2.6472,2.54371 0.21201,0.23646 0.43102,0.46998 0.61089,0.72677 0.16089,0.22968 0.23083,0.50637 0.40727,0.72678 0.16738,0.20909 0.45826,0.32718 0.61089,0.54508 0.19373,0.27657 0.24379,0.61675 0.40726,0.90846 0.10945,0.19532 0.28584,0.35549 0.40726,0.54508 0.15061,0.23517 0.24638,0.4971 0.40726,0.72678 0.17988,0.25679 0.41363,0.48036 0.6109,0.72677 0.14225,0.1777 0.26042,0.37039 0.40726,0.54508 0.0576,0.0685 0.15038,0.11043 0.20363,0.1817 0.0842,0.11268 0.11944,0.2507 0.20363,0.36338 0.0533,0.0713 0.1607,0.10509 0.20363,0.1817 0.0304,0.0542 -0.0303,0.12752 0,0.18169 0.0859,0.15322 0.3607,0.1972 0.40726,0.36339 0,1.6958 -0.20363,0.18169 0.20364,0.54508 0.0715,0.0638 -0.0703,0.78296 0,0.90847 0.0429,0.0766 0.1607,0.10508 0.20363,0.18169 0.064,0.1142 -0.064,0.61258 0,0.72677 0.0429,0.0766 0.15038,0.11043 0.20363,0.1817 0.0842,0.11268 0.13575,0.24226 0.20363,0.36338 0.0679,0.12113 0.14726,0.23765 0.20363,0.36339 0.0797,0.17783 0.15157,0.35928 0.20363,0.54508 0.0209,0.0746 -0.0247,0.34136 0,0.36339 0.048,0.0428 0.14292,-0.0271 0.20363,0 0.0728,0.0325 0.75807,0.65121 0.81452,0.72677 0.0842,0.11268 0.11944,0.25071 0.20364,0.36339 0.0532,0.0713 0.15038,0.11043 0.20363,0.18169 0.63445,0.84916 -0.39876,-0.21763 0.61089,0.90847 0.11993,0.13377 0.30077,0.22086 0.40726,0.36339 0.0753,0.10078 -0.096,0.27773 0,0.36338 0.048,0.0428 0.15564,-0.0428 0.20363,0 0.048,0.0428 -0.048,0.13887 0,0.1817 0.54302,0 -0.0679,-0.0606 0.20363,0.18169 0.048,0.0428 0.15564,-0.0428 0.20363,0 0.048,0.0428 -0.0303,0.12753 0,0.1817 0.10622,0.18955 0.4925,0.28733 0.40727,0.36338 -0.0679,0.0606 -0.27151,-0.24225 -0.20363,-0.18169 0.13575,0.12113 0.2715,0.24226 0.40726,0.36339"
       id="path3346"
       inkscape:connector-curvature="0" />
    <path
       style="fill:none;fill-rule:evenodd;stroke:#000000;stroke-width:0.13464484px;stroke-linecap:butt;stroke-linejoin:miter;stroke-opacity:1"
       d="m 23.622599,30.543519 c -0.91066,0.17157 0.18214,0.76514 0,1.09016 -0.0429,0.0766 -0.17327,0.10044 -0.20363,0.18169 -1.07343,2.87337 0.97797,-1.42862 -0.81452,1.99863 -0.58436,1.1173 -1.33292,2.81877 -2.03631,3.81557 -0.67272,0.95333 -1.57822,1.76595 -2.23994,2.7254 -1.21623,1.76346 -2.6029,4.40799 -3.86899,6.35927 -2.51773,3.8803 0.24333,-0.41652 -1.83268,2.36202 -0.16838,0.22536 -0.25666,0.49161 -0.40726,0.72677 -0.12142,0.1896 -0.29781,0.34977 -0.40726,0.54508 -0.096,0.17131 -0.10764,0.37378 -0.20363,0.54508 -0.17701,0.31587 -0.45015,0.58576 -0.6109,0.90847 -0.11366,0.22819 -0.12674,0.48667 -0.20363,0.72678 -0.059,0.18415 -0.13575,0.36338 -0.20363,0.54508"
       id="path3348"
       inkscape:connector-curvature="0" />
    <path
       style="fill:none;fill-rule:evenodd;stroke:#000000;stroke-width:0.13464484px;stroke-linecap:butt;stroke-linejoin:miter;stroke-opacity:1"
       d="m 22.400819,29.089969 c -0.33939,0.42395 -0.67877,0.8479 -1.01816,1.27186 -0.20363,0.36338 -0.35832,0.75211 -0.61089,1.09016 -0.29407,0.39358 -0.67572,0.72906 -1.01815,1.09016 -2.57757,2.71804 0.27117,-0.25924 -2.85084,2.7254 -2.71912,2.59948 0.18449,-0.0522 -2.23994,2.54371 -0.75218,0.80538 -2.4789,2.452 -3.46173,3.27048 -0.52748,0.43929 -1.088,0.8459 -1.6290399,1.27186 -0.61288,0.48252 -1.20478,0.98666 -1.83268,1.45355 -0.59454,0.44207 -1.24508,0.82245 -1.83268,1.27185 -0.33939,0.30282 -0.67877,0.60565 -1.01816,0.90847 -0.13575,0 -0.28584,-0.0542 -0.40726,0 -0.54301,0.24226 0.61089,0.18169 -0.20363,0.18169"
       id="path3350"
       inkscape:connector-curvature="0" />
    <path
       style="fill:none;fill-rule:evenodd;stroke:#000000;stroke-width:0.13464484px;stroke-linecap:butt;stroke-linejoin:miter;stroke-opacity:1"
       d="m 28.509749,30.361829 c 0,0.24225 -0.0446,0.48781 0,0.72677 0.025,0.13358 0.16193,0.23317 0.20363,0.36339 0.0951,0.29693 0.11256,0.61053 0.20363,0.90847 0.11296,0.36954 0.30314,0.71855 0.40726,1.09016 0.16789,0.59919 0.27151,1.21129 0.40726,1.81693 0.20364,0.78734 0.38363,1.57985 0.6109,2.36202 0.57395,1.97531 1.08341,3.32426 1.83268,5.26911 0.39779,1.03254 0.85489,2.04718 1.22178,3.08879 0.3802,1.07938 0.64761,2.18843 1.01816,3.27048 1.51887,4.43533 0.78579,2.00208 2.44357,5.99589 0.48035,1.15722 0.5045,2.08539 1.42542,2.90709"
       id="path3352"
       inkscape:connector-curvature="0" />
    <path
       style="fill:none;fill-rule:evenodd;stroke:#000000;stroke-width:0.13464484px;stroke-linecap:butt;stroke-linejoin:miter;stroke-opacity:1"
       d="m 29.731529,30.725209 c 0.0679,0.24226 0.0997,0.49492 0.20364,0.72678 0.0357,0.0795 0.15038,0.11042 0.20363,0.18169 0.25257,0.33805 0.38498,0.73741 0.61089,1.09016 0.12142,0.1896 0.29781,0.34977 0.40726,0.54508 0.16347,0.29172 0.24379,0.61675 0.40726,0.90847 0.17701,0.31587 0.4339,0.5926 0.6109,0.90847 0.43462,0.7756 0.77224,1.59321 1.22178,2.36201 0.57759,0.98778 2.02613,2.90514 2.64721,3.81557 0.49029,0.71871 0.92907,1.46492 1.42541,2.18032 0.38645,0.55701 0.89344,1.0493 1.22179,1.63524 0.28798,0.51391 0.37174,1.10177 0.61089,1.63524 0.16911,0.37722 0.40726,0.72678 0.6109,1.09016 0.13575,0.24226 0.33363,0.46401 0.40726,0.72678 0.0659,0.23502 -0.0446,0.48781 0,0.72677 0.025,0.13359 0.14384,0.23891 0.20363,0.36339 0.14399,0.29978 0.31108,0.59381 0.40726,0.90847 0.10864,0.35542 0.15242,0.7246 0.20363,1.09016 0.0168,0.12019 -0.0607,0.25504 0,0.36338 0.0304,0.0542 0.15564,-0.0428 0.20363,0 0.007,0.006 0,0.50102 0,0.54509 0,0.0606 0.048,0.13886 0,0.18169 -0.048,0.0428 -0.15563,-0.0428 -0.20363,0 -0.096,0.0856 0.0607,0.25504 0,0.36339 -0.027,0.0482 -0.55683,0.52096 -0.61089,0.54508 -0.0607,0.0271 -0.14292,-0.0271 -0.20363,0 -0.17172,0.0766 -0.23555,0.28677 -0.40726,0.36338 -0.12143,0.0542 -0.31127,-0.0857 -0.40727,0 -0.096,0.0856 0.13576,0.36339 0,0.36339 -0.0679,0 0,-0.24226 0,-0.18169 0,0.12113 0,0.24225 0,0.36338 0,0.0606 -0.048,0.13887 0,0.1817 0.048,0.0428 0.15564,-0.0428 0.20363,0 0.048,0.0428 -0.048,0.13887 0,0.18169 0.048,0.0428 0.15564,-0.0428 0.20364,0 0.048,0.0428 -0.048,0.13887 0,0.1817 0.048,0.0428 0.15563,-0.0428 0.20363,0 0.048,0.0428 -0.048,0.13886 0,0.18169 0.096,0.0856 0.31127,-0.0857 0.40726,0 0.20087,0.17923 -0.41726,0.36339 0.20363,0.36339"
       id="path3354"
       inkscape:connector-curvature="0" />
    <path
       style="fill:none;fill-rule:evenodd;stroke:#000000;stroke-width:0.13464484px;stroke-linecap:butt;stroke-linejoin:miter;stroke-opacity:1"
       d="m 18.735459,4.7430393 c 1.96843,0 3.93687,0 5.9053,0 0.67877,0 1.35754,0 2.03631,0 0.20363,0 0.40851,-0.0201 0.61089,0 0.41036,0.0407 0.81174,0.13865 1.22179,0.18169 4.70465,0.49386 -0.43398,-0.21331 5.09077,0.54508 1.16304,0.15966 3.27966,0.4748 4.47989,0.72678 0.48101,0.10099 0.96927,0.1938 1.42541,0.36338 0.36535,0.13583 0.67452,0.36988 1.01816,0.54509 0.13178,0.0672 0.28584,0.10043 0.40726,0.18169 0.15359,0.10278 0.30077,0.22085 0.40726,0.36339 0.16838,0.22536 0.25984,0.49 0.40726,0.72677 0.19222,0.30871 0.40727,0.60564 0.6109,0.90847 0.20363,0.30282 0.40726,0.60564 0.61089,0.9084697 0.20363,0.30282 0.43389,0.5926 0.61089,0.90846 0.23118,0.41255 0.37971,0.85931 0.6109,1.27186 0.24473,0.43673 0.56979,0.83512 0.81452,1.27185 0.82433,1.47105 0.45092,1.02534 1.01815,2.54371 0.11559,0.30941 0.34717,0.58676 0.40727,0.90847 0.0781,0.41818 0,0.8479 0,1.27185 0,0.72678 0,1.45355 0,2.18033 0,0.42395 0,0.8479 0,1.27185 0,0.18169 0,0.36339 0,0.54508 0,0.12113 0.0266,0.24461 0,0.36339 -0.0999,0.44557 -0.39013,0.87789 -0.6109,1.27185 -0.13575,0.24226 -0.23888,0.50141 -0.40726,0.72678 -0.20849,0.27904 -1.02929,0.78823 -1.22178,0.90846 -1.4624,0.9134 -0.81477,0.56032 -2.23995,1.09017 -0.47717,0.1774 -0.935,0.39922 -1.42541,0.54508 -0.54641,0.16251 -1.98239,0.28108 -2.44357,0.36338 -0.54886,0.0979 -1.08604,0.24226 -1.62905,0.36339 -0.27151,0.0606 -0.54902,0.10273 -0.81453,0.18169 -0.34677,0.10314 -0.66354,0.28429 -1.01815,0.36339 -0.46563,0.10387 -0.95775,0.0854 -1.42542,0.18169 -0.4183,0.0861 -0.80531,0.27049 -1.22178,0.36339 -0.77338,0.17252 -1.479,0.1597 -2.23995,0.36339 -0.35011,0.0937 -0.65759,0.30977 -1.01815,0.36339 -0.46867,0.0697 -0.95674,-0.0697 -1.42542,0 -0.36055,0.0536 -0.6655,0.27757 -1.01815,0.36338 -0.39833,0.0969 -0.81453,0.12113 -1.22179,0.1817 -1.4896,0.22152 -0.8089,0.18169 -2.03631,0.18169 -0.0679,0 -0.13924,0.0191 -0.20363,0 -0.14399,-0.0428 -0.27151,-0.12113 -0.40726,-0.18169 -0.27151,-0.12113 -0.54302,-0.24226 -0.81452,-0.36339 -0.40727,-0.18169 -0.81453,-0.36339 -1.22179,-0.54508 -0.40726,-0.1817 -0.80836,-0.37483 -1.22179,-0.54508 -1.30748,-0.53845 -1.53295,-0.45841 -2.6472,-1.27186 -0.98931,-0.72223 -1.02274,-0.99101 -1.83268,-1.81693 -0.18963,-0.19338 -0.45826,-0.32719 -0.61089,-0.54508 -0.50739,-0.72436 -0.40728,-1.18107 -0.61089,-1.99863 -0.26803,-1.07618 -0.20364,-0.0132 -0.20364,-1.09016 0,-0.0606 -0.0165,-0.12294 0,-0.1817 0.0521,-0.1858 0.15158,-0.35927 0.20364,-0.54508 0.0839,-0.2996 0.0872,-0.61764 0.20363,-0.90846 0.22484,-0.56174 0.55999,-1.08368 0.81452,-1.63525 0.22081,-0.47848 0.36564,-0.98463 0.61089,-1.45354 0.23142,-0.44248 0.55508,-0.84194 0.81453,-1.27186 0.6493,-1.07595 0.49709,-1.02869 1.22178,-1.99863 0.4596,-0.61512 0.96583,-1.20181 1.42542,-1.81693 0.3552,-0.47541 0.68255,-0.96694 1.01815,-1.45355 0.20744,-0.30076 0.40113,-0.609 0.6109,-0.90847 0.12971,-0.1851697 0.23421,-0.3906697 0.40726,-0.5450797 0.10732,-0.0958 0.28584,-0.10044 0.40726,-0.18169 0.38397,-0.25696 0.64944,-0.63431 1.01816,-0.90847 0.36089,-0.26834 1.01536,-0.56997 1.42541,-0.72677 0.19729,-0.0755 0.41891,-0.0961 0.6109,-0.1817 0.50325,-0.22452 -0.0703,-0.18169 0.40726,-0.18169"
       id="path3356"
       inkscape:connector-curvature="0" />
    <path
       style="fill:none;fill-rule:evenodd;stroke:#000000;stroke-width:0.13464484px;stroke-linecap:butt;stroke-linejoin:miter;stroke-opacity:1"
       d="m 39.098559,12.555859 c 0,0.42395 0,0.8479 0,1.27186 0,0.0606 0.0304,0.12752 0,0.18169 -0.0429,0.0766 -0.17327,0.10044 -0.20363,0.18169 -0.0311,0.0832 0,0.80706 0,0.90847 0,0.0606 0,0.12113 0,0.18169 0,0.0606 -0.0304,0.12753 0,0.1817 0.0429,0.0766 0.13575,0.12113 0.20363,0.18169 0.0679,0.0606 0.12684,0.1303 0.20363,0.18169 0.19579,0.13103 0.392,0.26573 0.6109,0.36339 0.24209,0.10801 1.22968,0.33428 1.42541,0.36339 0.25596,0.0381 0.73351,0 1.01816,0 0.14163,0 0.94451,0.0328 1.01815,0 0.17172,-0.0766 0.24752,-0.26837 0.40726,-0.36339 0.12629,-0.0751 0.29994,-0.0859 0.40727,-0.18169 0.37996,-0.33903 0.0946,-0.53228 0.20363,-0.72678 0.0429,-0.0766 0.1607,-0.10508 0.20363,-0.18169 0.005,-0.01 0.005,-0.53558 0,-0.54508 -0.0429,-0.0766 -0.1607,-0.10509 -0.20363,-0.18169 -0.0304,-0.0542 0.048,-0.13887 0,-0.1817 -0.096,-0.0856 -0.31127,0.0857 -0.40727,0 -0.048,-0.0428 0.048,-0.13887 0,-0.18169 -0.048,-0.0428 -0.14292,0.0271 -0.20363,0 -0.0859,-0.0383 -0.11256,-0.15461 -0.20363,-0.18169 -0.12879,-0.0383 -0.28584,0.0542 -0.40726,0 -0.0607,-0.0271 0.048,-0.13887 0,-0.1817 -0.096,-0.0857 -0.31127,0.0856 -0.40726,0 -0.048,-0.0428 0.048,-0.13887 0,-0.18169 -0.10182,-0.0908 -0.50908,0.0908 -0.61089,0 -0.048,-0.0428 0.048,-0.13887 0,-0.18169 -0.048,-0.0428 -0.13576,0 -0.20364,0 -0.54301,0 -1.08603,0 -1.62904,0"
       id="path3358"
       inkscape:connector-curvature="0" />
    <path
       style="fill:none;fill-rule:evenodd;stroke:#000000;stroke-width:0.13464484px;stroke-linecap:butt;stroke-linejoin:miter;stroke-opacity:1"
       d="m 37.469509,22.912389 c 0.33939,0.36339 0.64329,0.75568 1.01816,1.09016 0.17305,0.15441 0.42507,0.22128 0.61089,0.36339 0.29153,0.22296 0.52556,0.50117 0.81453,0.72677 0.25541,0.19941 0.54301,0.36339 0.81452,0.54508 0.27151,0.1817 0.51985,0.39484 0.81452,0.54509 1.20385,0.6138 0.2291,0.0511 0.81453,0.18169 0.20823,0.0464 0.4116,0.11056 0.61089,0.18169 0.14092,0.0503 0.25843,0.15514 0.40726,0.1817 0.26624,0.0475 0.54302,0 0.81453,0 0.61089,0 1.22178,0 1.83267,0 0.0748,0 0.80633,0.007 0.81453,0 0.007,-0.006 0,-0.50102 0,-0.54508"
       id="path3360"
       inkscape:connector-curvature="0" />
    <path
       style="fill:none;fill-rule:evenodd;stroke:#000000;stroke-width:0.13464484px;stroke-linecap:butt;stroke-linejoin:miter;stroke-opacity:1"
       d="m 5.0921791,45.442389 c 0.63394,0.33796 1.11524,0.81339 1.62905,1.27185 0.0679,0.0606 0.11257,0.15461 0.20363,0.1817 0.92699,0 0.0117,-0.0857 0.6109,0.18169 0.0607,0.0271 0.15563,-0.0428 0.20363,0 0.048,0.0428 -0.048,0.13887 0,0.18169 0.048,0.0428 0.14292,-0.0271 0.20363,0 0.17172,0.0766 0.24752,0.26837 0.40726,0.36339 0.3391,0.20171 0.90723,0.33458 1.22179,0.54508 0.006,0.004 0.7654499,0.6392 0.8145199,0.72678 0.0304,0.0542 -0.0303,0.12752 0,0.18169 0.42373,0.75616 -0.014,-0.19424 0.40726,0.18169 0.048,0.0428 -0.048,0.13887 0,0.1817 0.048,0.0428 0.15564,-0.0428 0.20363,0 0.048,0.0428 -0.048,0.13886 0,0.18169 0.048,0.0428 0.15564,-0.0428 0.20363,0 0.048,0.0428 -0.0303,0.12752 0,0.18169 0.0429,0.0766 0.16071,0.10509 0.20364,0.1817 0.0303,0.0542 -0.048,0.13886 0,0.18169 0.048,0.0428 0.15563,-0.0428 0.20363,0 0.048,0.0428 -0.048,0.13887 0,0.18169 0.048,0.0428 0.15563,-0.0428 0.20363,0 0.096,0.0856 -0.096,0.27774 0,0.36339 0.27151,0.24226 0.20363,-0.30282 0.20363,0.18169"
       id="path3366"
       inkscape:connector-curvature="0" />
    <path
       style="fill:none;fill-rule:evenodd;stroke:#000000;stroke-width:0.13464484px;stroke-linecap:butt;stroke-linejoin:miter;stroke-opacity:1"
       d="m 36.858619,55.798919 c 0.27151,0 0.54302,0 0.81452,0 0,-0.0606 -0.048,-0.13887 0,-0.18169 0.096,-0.0857 0.31127,0.0857 0.40727,0 0.048,-0.0428 -0.048,-0.13887 0,-0.1817 0.048,-0.0428 0.15563,0.0428 0.20363,0 0.048,-0.0428 -0.048,-0.13887 0,-0.18169 0.048,-0.0428 0.15563,0.0428 0.20363,0 0.048,-0.0428 -0.048,-0.13887 0,-0.18169 0.10181,-0.0909 0.50907,0.0908 0.61089,0 0.048,-0.0428 -0.048,-0.13887 0,-0.1817 0.0557,-0.0497 0.70406,0.0493 0.81453,0 0.50325,-0.22452 -0.0703,-0.18169 0.40726,-0.18169"
       id="path3368"
       inkscape:connector-curvature="0" />
    <path
       style="fill:none;fill-rule:evenodd;stroke:#000000;stroke-width:0.13464484px;stroke-linecap:butt;stroke-linejoin:miter;stroke-opacity:1"
       d="m 6.3139691,89.412219 c 1.05757,0.23817 0.66173,-0.19303 1.42542,-0.36339 0.1317,-0.0294 0.27151,0 0.40726,0 0.0679,0 0.14292,0.0271 0.20363,0 0.0859,-0.0383 0.11777,-0.14339 0.20363,-0.18169 0.12799,-0.0571 0.68654,0.0571 0.81453,0 0.0859,-0.0383 0.1105,-0.16092 0.20363,-0.18169 0.19755,-0.0441 0.40726,0 0.6108899,0 0.0679,0 0.14292,0.0271 0.20363,0 0.0859,-0.0383 0.11777,-0.14339 0.20363,-0.1817 0.12142,-0.0542 0.31127,0.0856 0.40726,0 0.048,-0.0428 -0.048,-0.13887 0,-0.18169 0.048,-0.0428 0.13576,0 0.20363,0 0.47514,0 0.95028,0 1.42542,0 0.13576,0 0.27151,0 0.40726,0 0.0679,0 0.20363,-0.0606 0.20363,0 0,0.0606 -0.13575,0 -0.20363,0"
       id="path3370"
       inkscape:connector-curvature="0" />
    <path
       style="fill:none;fill-rule:evenodd;stroke:#000000;stroke-width:0.13464484px;stroke-linecap:butt;stroke-linejoin:miter;stroke-opacity:1"
       d="m 39.913089,86.868509 c 0.67876,0 1.35754,0 2.0363,0 0.0679,0 0.13576,0 0.20364,0 0.0679,0 0.15563,0.0428 0.20363,0 0.048,-0.0428 -0.048,-0.13887 0,-0.18169 0.0416,-0.0371 0.53015,0.036 0.61089,0 0.84746,-0.37809 -0.21769,0.0125 0.20363,-0.36339 0.008,-0.007 0.73974,0 0.81452,0 0.5639,0 -0.15663,-0.18169 0.40727,-0.18169"
       id="path3372"
       inkscape:connector-curvature="0" />
    <path
       style="fill:none;fill-rule:evenodd;stroke:#000000;stroke-width:0.13464484px;stroke-linecap:butt;stroke-linejoin:miter;stroke-opacity:1"
       d="m 41.134869,13.100939 c -1.28814,0 -0.93018,0 -2.03631,0"
       id="path3374"
       inkscape:connector-curvature="0" />
    <path
       style="fill:none;fill-rule:evenodd;stroke:#000000;stroke-width:0.13464484px;stroke-linecap:butt;stroke-linejoin:miter;stroke-opacity:1"
       d="m 23.826239,7.2867493 c 0.2715,-0.12113 0.54301,-0.24226 0.81452,-0.36339 0,-0.0606 -0.048,-0.13887 0,-0.18169 0.048,-0.0428 0.14292,0.0271 0.20363,0 0.0859,-0.0383 0.13575,-0.12113 0.20363,-0.1817 0.0679,-0.0606 0.11777,-0.14338 0.20363,-0.18169 0.0607,-0.0271 0.15564,0.0428 0.20363,0 0.048,-0.0428 -0.048,-0.13887 0,-0.18169 0.096,-0.0856 0.31127,0.0857 0.40727,0 0.048,-0.0428 -0.048,-0.13887 0,-0.1817 0.096,-0.0856 0.31127,0.0857 0.40726,0 0.048,-0.0428 -0.048,-0.13886 0,-0.18169 0.048,-0.0428 0.15563,0.0428 0.20363,0 0.048,-0.0428 -0.048,-0.13887 0,-0.18169 0.10181,-0.0909 0.50908,0.0908 0.61089,0 0.048,-0.0428 -0.048,-0.13887 0,-0.1817 0.096,-0.0857 0.28584,0.0542 0.40726,0 0.0859,-0.0383 0.11778,-0.14339 0.20363,-0.18169 0.12143,-0.0542 0.31127,0.0856 0.40727,0 0.048,-0.0428 -0.048,-0.13887 0,-0.18169 0.096,-0.0856 0.31127,0.0856 0.40726,0 0.048,-0.0428 -0.048,-0.13887 0,-0.1817 0.10181,-0.0908 0.50908,0.0909 0.61089,0 0.048,-0.0428 -0.048,-0.13886 0,-0.18169 0.018,-0.016 0.78658,0 0.20363,0"
       id="path3376"
       inkscape:connector-curvature="0" />
    <path
       style="fill:#a0a0a0;stroke:none;stroke-width:1px;stroke-linecap:butt;stroke-linejoin:miter;stroke-opacity:1"
       d="m 10.733669,49.080849 c -0.9197899,-0.91041 -1.8836899,-1.53741 -3.2988299,-2.14581 -0.33599,-0.14445 -0.8858,-0.52104 -1.22179,-0.83687 l -0.61089,-0.57423 0.81121,-0.57623 c 3.6730099,-2.60907 7.3794699,-5.81504 9.0684999,-7.84398 0.49914,-0.59959 1.88881,-2.01974 3.08816,-3.15589 1.19935,-1.13616 2.36932,-2.42391 2.59994,-2.86168 0.23062,-0.43776 0.45346,-0.79594 0.49521,-0.79594 0.36076,0 1.52847,0.59387 1.62946,0.8287 0.31253,0.7267 -2.17991,5.60502 -3.95848,7.74772 -0.72188,0.86967 -2.1289,2.9546 -3.1267,4.63319 -0.9978,1.67858 -2.00577,3.30339 -2.23994,3.61069 -0.23416,0.30729 -0.81714,1.07896 -1.29551,1.7148 -0.47837,0.63585 -0.89072,1.17114 -0.91634,1.18954 -0.0256,0.0184 -0.48642,-0.40191 -1.024,-0.93401 z"
       id="path3378"
       inkscape:connector-curvature="0" />
    <path
       style="fill:none;fill-rule:evenodd;stroke:#000000;stroke-width:0.13464484px;stroke-linecap:butt;stroke-linejoin:miter;stroke-opacity:1"
       d="m 29.935169,31.088599 c 0.22265,-0.45589 0.20363,-0.81627 0.20363,-1.27185 0,-0.0606 0.048,-0.13887 0,-0.1817 -0.048,-0.0428 -0.15564,0.0428 -0.20363,0 -0.096,-0.0856 0.096,-0.27773 0,-0.36339 -0.048,-0.0428 -0.20364,-0.0606 -0.20364,0 0,0.0857 0.13576,0.12113 0.20364,0.1817"
       id="path3380"
       inkscape:connector-curvature="0" />
    <path
       style="fill:#a0a0a0;stroke:none;stroke-width:1px;stroke-linecap:butt;stroke-linejoin:miter;stroke-opacity:1"
       d="m 37.084309,55.329439 c -0.0999,-0.23086 -0.55237,-1.24698 -1.00541,-2.25805 -0.45303,-1.01106 -1.19129,-2.97335 -1.64058,-4.36064 -0.44929,-1.38729 -1.50182,-4.36199 -2.33895,-6.61045 -0.83713,-2.24845 -1.80299,-5.23277 -2.14634,-6.63181 -0.34336,-1.39904 -0.76255,-2.94507 -0.93152,-3.43563 -0.16898,-0.49056 -0.30723,-1.08333 -0.30723,-1.31728 0,-0.49585 -0.3344,-0.57217 -0.47053,-0.10739 -0.0598,0.20429 -0.10157,0.1467 -0.11674,-0.16107 -0.0191,-0.38798 0.0828,-0.49507 0.53636,-0.56339 0.30799,-0.0464 0.69526,-0.11699 0.8606,-0.15689 0.37671,-0.0909 0.55433,0.73604 0.20005,0.93141 -0.1908,0.10521 -0.17824,0.25598 0.0547,0.65647 0.1663,0.28595 1.05883,1.86897 1.98339,3.51784 1.59472,2.84402 3.91287,6.40683 5.89555,9.06097 0.49496,0.66259 1.01332,1.53989 1.15191,1.94955 0.13858,0.40967 0.48959,1.16325 0.78002,1.67463 0.29042,0.51138 0.52809,1.07559 0.52814,1.25379 6e-5,0.1782 0.18465,0.75723 0.41019,1.28672 0.22555,0.5295 0.43168,1.4161 0.45807,1.97023 0.0439,0.92099 -0.003,1.04408 -0.55026,1.43334 -0.32904,0.23421 -0.69557,0.41051 -0.81453,0.39179 -0.11895,-0.0187 -0.24527,0.1908 -0.28071,0.46561 -0.0354,0.27481 -0.14998,0.49966 -0.25454,0.49966 -0.42125,0 -0.51145,0.0347 -0.90281,0.34736 -0.7226,0.57727 -0.90767,0.60476 -1.09881,0.16323 z"
       id="path3382"
       inkscape:connector-curvature="0" />
    <path
       style="fill:#a0a0a0;stroke:none;stroke-width:1px;stroke-linecap:butt;stroke-linejoin:miter;stroke-opacity:1"
       d="m 22.503529,30.257899 c -0.22399,-0.11163 -0.43749,-0.22469 -0.47444,-0.25125 -0.0369,-0.0265 0.0881,-0.25978 0.27796,-0.51828 0.41578,-0.56621 0.0455,-0.63739 -0.39518,-0.076 l -0.30931,0.39403 -2.0949,-0.87798 c -2.53721,-1.06336 -2.88348,-1.28364 -4.35663,-2.77157 -0.99907,-1.00908 -1.1942,-1.33046 -1.4437,-2.3777 -0.16982,-0.71281 -0.23409,-1.5442 -0.15625,-2.02112 0.26987,-1.65351 2.58707,-6.11894 4.24148,-8.17368 0.39761,-0.49382 1.18464,-1.5552 1.74895,-2.35862 1.19606,-1.7028597 2.15745,-2.5688297 3.57291,-3.2182897 0.55999,-0.25694 1.29306,-0.69236 1.62905,-0.9676 0.66175,-0.5421 1.71276,-1.078 3.15628,-1.60939 1.08441,-0.39918 2.39453,-0.32367 7.12709,0.41079 5.14662,0.79871 5.58394,1.00804 7.11634,3.40627 1.94524,3.0443297 2.89221,4.7563497 3.49256,6.3141797 0.55503,1.44022 0.5908,1.70773 0.5908,4.41771 0,2.65307 -0.0389,2.96063 -0.48514,3.83102 -0.37612,0.7337 -0.76091,1.11897 -1.71232,1.71445 -0.67495,0.42244 -1.40225,0.76808 -1.61621,0.76808 -0.49504,0 -2.26144,-1.16553 -3.77103,-2.48827 -0.64368,-0.564 -1.22822,-0.9738 -1.29898,-0.91067 -0.1681,0.14999 1.94677,1.97146 3.42656,2.95118 l 1.16088,0.76858 -0.85544,0.28247 c -0.47049,0.15536 -1.68014,0.41669 -2.68811,0.58073 -1.00797,0.16405 -2.33349,0.45532 -2.94559,0.64728 -0.61211,0.19196 -1.31075,0.34902 -1.55254,0.34902 -0.2418,0 -0.84059,0.12756 -1.33066,0.28346 -0.49007,0.15591 -1.32937,0.3117 -1.86512,0.34621 -0.53575,0.0345 -1.11384,0.16622 -1.28464,0.29271 -0.1708,0.12648 -0.7861,0.25534 -1.36734,0.28637 -0.58123,0.031 -1.28602,0.13641 -1.56619,0.2342 -0.28018,0.0978 -0.99049,0.25166 -1.57848,0.34193 l -1.06906,0.16414 0,-0.61112 c 0,-0.33612 -0.0916,-0.61113 -0.20363,-0.61113 -0.112,0 -0.20363,0.28617 -0.20363,0.63593 0,0.67456 -0.21279,0.77253 -0.91634,0.42191 z m 21.52382,-14.0044 c 0.5625,-0.41731 0.92202,-1.49954 0.62537,-1.88247 -0.17703,-0.22851 -1.82737,-1.02009 -2.29517,-1.10087 -0.16799,-0.029 -0.92397,-0.10681 -1.67995,-0.17288 -0.95519,-0.0835 -1.37451,-0.19531 -1.37451,-0.36657 0,-0.13555 -0.0798,-0.24645 -0.17734,-0.24645 -0.0975,0 -0.24175,0.65889 -0.32048,1.46419 -0.10768,1.1014 -0.0763,1.53622 0.12643,1.75488 0.90176,0.97241 4.06601,1.31404 5.09565,0.55017 z"
       id="path3384"
       inkscape:connector-curvature="0" />
    <path
       style="fill:none;fill-rule:evenodd;stroke:#000000;stroke-width:0.13464484px;stroke-linecap:butt;stroke-linejoin:miter;stroke-opacity:1"
       d="m 27.491589,61.249719 c 0.11919,0.4254 0.14423,0.73812 0.40727,1.09016 0.0532,0.0713 0.15038,0.11043 0.20363,0.1817 0.0842,0.11268 0.15563,0.23491 0.20363,0.36339 0.0215,0.0575 -0.048,0.13886 0,0.18169 0.048,0.0428 0.13575,0 0.20363,0 0,0.0606 -0.048,0.13887 0,0.18169 0.048,0.0428 0.15563,-0.0428 0.20363,0 0.048,0.0428 0,0.12113 0,0.1817 0,0.0606 0,0.12113 0,0.18169 0,0.0606 0,0.12113 0,0.18169 0,0.0606 0.0679,0.1817 0,0.1817 -0.0679,0 0,-0.24226 0,-0.1817 0,0.12113 0,0.24226 0,0.36339 0,0.0606 -0.048,0.13887 0,0.18169 0.048,0.0428 0.15563,-0.0428 0.20363,0 0.007,0.006 0,0.50102 0,0.54508"
       id="path3388"
       inkscape:connector-curvature="0" />
    <path
       style="fill:#a0a0a0;stroke:none;stroke-width:1px;stroke-linecap:butt;stroke-linejoin:miter;stroke-opacity:1"
       d=""
       id="path3390"
       inkscape:connector-curvature="0" />
    <path
       style="fill:none;fill-rule:evenodd;stroke:#000000;stroke-width:0.13464484px;stroke-linecap:butt;stroke-linejoin:miter;stroke-opacity:1"
       d="m 24.844389,65.792059 c -0.10406,1.09674 0.77342,-0.0367 1.01816,0.1817 0.048,0.0428 -0.048,0.13886 0,0.18169 0.048,0.0428 0.15563,-0.0428 0.20363,0 0.048,0.0428 -0.048,0.13887 0,0.18169 0.096,0.0857 0.40726,-0.12113 0.40726,0 0,0.0606 -0.20363,-0.0606 -0.20363,0 0,0.0857 0.1607,0.10509 0.20363,0.1817 0.0303,0.0542 0,0.12113 0,0.18169"
       id="path3392"
       inkscape:connector-curvature="0" />
    <path
       style="fill:none;fill-rule:evenodd;stroke:#000000;stroke-width:0.13464484px;stroke-linecap:butt;stroke-linejoin:miter;stroke-opacity:1"
       d="m 22.451729,62.794119 c 0.0679,-0.0454 0.13575,-0.0909 0.20363,-0.13627 0,-0.0151 -0.012,-0.0347 0,-0.0454 0.017,0 0.0339,0 0.0509,0 0.017,0 0.0389,0.0107 0.0509,0 0.012,-0.0107 -0.012,-0.0347 0,-0.0454 0.024,-0.0214 0.0778,0.0214 0.10182,0 0.012,-0.0107 -0.012,-0.0347 0,-0.0454 0.012,-0.0107 0.0389,0.0107 0.0509,0 0.012,-0.0107 -0.012,-0.0347 0,-0.0454 0.024,-0.0214 0.0778,0.0214 0.10181,0 0.012,-0.0107 -0.012,-0.0347 0,-0.0454 0.024,-0.0214 0.0778,0.0214 0.10182,0 0.012,-0.0107 -0.012,-0.0347 0,-0.0454 0.012,-0.0107 0.0357,0.007 0.0509,0 0.0215,-0.01 0.0339,-0.0303 0.0509,-0.0454"
       id="path3394"
       inkscape:connector-curvature="0" />
    <path
       style="fill:#a0a0a0;stroke:none;stroke-width:1px;stroke-linecap:butt;stroke-linejoin:miter;stroke-opacity:1"
       d="m 6.4629291,89.350759 c -0.0731,-0.0267 -0.0502,-0.0919 0.17044,-0.48511 0.1402,-0.24983 0.38042,-0.63543 0.53384,-0.85688 0.15342,-0.22147 0.35345,-0.54851 0.44452,-0.72678 0.0911,-0.17827 0.31358,-0.49787 0.49447,-0.71022 0.1809,-0.21235 0.58384,-0.70293 0.89543,-1.09016 0.31159,-0.38723 0.86074,-1.05504 1.2203399,-1.48401 0.74996,-0.89465 1.01692,-1.28107 1.39112,-2.01359 0.37588,-0.7358 2.09525,-3.48592 2.19498,-3.51086 0.0485,-0.0121 0.36187,-0.52634 0.7567,-1.2415 1.14279,-2.06994 1.9763,-3.4499 3.39131,-5.61464 1.49378,-2.28526 1.61109,-2.49172 2.28114,-4.01498 0.4243,-0.96457 1.00989,-2.13006 1.60624,-3.19687 0.21647,-0.38723 0.49388,-0.91681 0.61647,-1.17684 0.18609,-0.39473 0.2567,-0.49471 0.42768,-0.60559 l 0.20479,-0.13282 0.0161,0.11729 c 0.0114,0.0827 0.0465,0.1173 0.11915,0.1173 0.1028,0 0.10301,-0.01 0.0912,-4.30387 -0.0116,-4.21141 -0.009,-4.31704 0.0977,-4.91708 0.0602,-0.33727 0.15438,-0.72564 0.20919,-0.86304 0.0976,-0.24466 0.0997,-0.42971 0.10133,-8.93705 l 0.002,-8.68722 2.13812,0 2.13813,0 0,8.23828 c 0,8.09267 -0.002,8.24221 -0.10034,8.46011 -0.19592,0.43309 -0.2687,1.08493 -0.29346,2.62831 -0.0211,1.31361 -0.0326,1.46882 -0.1202,1.62208 -0.0923,0.16145 -0.0969,0.30903 -0.0969,3.11935 l 0,2.94989 0.15273,0.0475 c 0.084,0.0261 0.15272,0.0756 0.15272,0.10983 0,0.0343 0.0759,0.14265 0.16863,0.24083 0.27682,0.29305 0.34045,0.39564 0.34045,0.54895 0,0.10592 0.0279,0.1537 0.10181,0.17465 0.056,0.0159 0.10182,0.0567 0.10182,0.0908 0,0.0341 0.0458,0.075 0.10182,0.0908 0.0983,0.0278 0.10181,0.0687 0.10181,1.17703 0,1.09051 0.005,1.15233 0.10182,1.23041 0.0727,0.0587 0.10181,0.1399 0.10181,0.28383 0,0.16342 0.0193,0.20612 0.10182,0.22538 0.0747,0.0174 0.10181,0.062 0.10181,0.1673 0,0.11694 0.0639,0.20016 0.34491,0.44894 0.18969,0.16796 0.38183,0.30539 0.42697,0.30539 0.0451,0 0.33092,0.20991 0.63507,0.46648 0.36118,0.30467 0.73712,0.56778 1.08381,0.75854 0.83976,0.46207 1.92827,1.44187 3.27381,2.94686 0.34835,0.38963 0.58332,0.70611 0.73884,0.99515 0.18478,0.3434 0.28488,0.46846 0.52762,0.65911 0.29772,0.23383 0.45263,0.48072 0.65224,1.03955 0.0326,0.0912 0.14683,0.27513 0.25392,0.40881 0.10709,0.13369 0.29211,0.41681 0.41115,0.62917 0.11904,0.21235 0.40267,0.61259 0.63029,0.88942 0.72609,0.88305 0.76787,0.93579 0.89807,1.13365 0.0703,0.10687 0.16769,0.23358 0.21636,0.28156 0.0487,0.048 0.0885,0.13066 0.0885,0.18373 0,0.0586 0.0825,0.15532 0.21007,0.24625 l 0.21007,0.14977 -0.03,0.44588 c -0.0271,0.40392 -0.0218,0.44447 0.0568,0.43096 0.0486,-0.008 0.10107,-0.0745 0.11932,-0.15062 0.0183,-0.0764 0.0352,0.0646 0.0386,0.32283 0.005,0.3968 0.0197,0.46962 0.10784,0.54077 0.086,0.0695 0.10182,0.1399 0.10182,0.45423 0,0.32094 0.0148,0.3839 0.10747,0.45855 0.12631,0.1017 0.47686,0.70794 0.61228,1.05889 0.0521,0.13507 0.0948,0.3424 0.0948,0.46073 0,0.21195 0.0863,0.31229 0.20992,0.24411 0.0738,-0.0407 0.77889,0.61344 0.90946,0.8438 0.0637,0.11242 0.19301,0.28112 0.28731,0.37487 0.0943,0.0938 0.17145,0.21874 0.17145,0.27773 0,0.11014 0.48346,0.69207 0.7312,0.88014 0.10773,0.0818 0.13423,0.14172 0.13423,0.30355 0,0.16175 0.0202,0.20734 0.10182,0.23047 0.056,0.0159 0.10181,0.0581 0.10181,0.0939 0,0.0358 0.0344,0.0651 0.0764,0.0651 0.042,0 0.0764,0.0311 0.0764,0.0691 0,0.038 0.0573,0.0924 0.12727,0.12086 0.07,0.0284 0.12751,0.074 0.12781,0.10122 2.8e-4,0.0272 0.1009,0.14658 0.22356,0.26525 0.1847,0.17868 0.20566,0.21576 0.12196,0.21576 -0.0582,0 -0.11234,0.0385 -0.12768,0.0908 -0.0244,0.0831 -0.0694,0.0909 -0.52798,0.0909 -0.45018,0 -0.50694,0.009 -0.55614,0.0914 -0.0301,0.0502 -0.0481,0.1269 -0.04,0.17034 0.0126,0.0673 -0.0305,0.0797 -0.29062,0.0842 -0.43166,0.007 -0.43271,0.008 -0.43271,0.10832 0,0.0883 -0.0338,0.0908 -1.20906,0.0905 l -1.20906,-5.1e-4 -0.12727,-0.16833 c -0.07,-0.0926 -0.36157,-0.37509 -0.64794,-0.62779 -0.49077,-0.43307 -0.53674,-0.48997 -0.80044,-0.99071 -0.34518,-0.65548 -1.16271,-1.75557 -1.30466,-1.75557 -0.0538,0 -0.0978,0.0256 -0.0979,0.0568 -1.4e-4,0.18218 -1.00777,-1.50788 -2.4846,-4.1676 l -1.68986,-3.04336 -0.46076,-0.3861 c -0.29469,-0.24693 -0.48297,-0.4434 -0.52238,-0.54508 -0.097,-0.25043 -0.62822,-1.02631 -1.0262,-1.49897 -0.19984,-0.23734 -0.65907,-0.80968 -1.02051,-1.27186 -0.36145,-0.46218 -0.8184,-1.03452 -1.01546,-1.27185 -0.19705,-0.23734 -0.57588,-0.74713 -0.84182,-1.13287 -0.26595,-0.38574 -0.59265,-0.80792 -0.726,-0.93817 -0.13335,-0.13026 -0.29685,-0.3461 -0.36334,-0.47966 -0.0665,-0.13356 -0.18259,-0.30188 -0.258,-0.37404 -0.0939,-0.0898 -0.128,-0.16144 -0.10825,-0.22712 0.0159,-0.0528 0.0292,-0.35653 0.0296,-0.67506 7.2e-4,-0.54743 0.006,-0.57915 0.10187,-0.57915 0.0901,0 0.0994,-0.026 0.0853,-0.23847 -0.012,-0.17967 -0.0369,-0.2421 -0.10117,-0.25316 -0.0566,-0.01 -0.0853,-0.0593 -0.0853,-0.14749 0,-0.10106 -0.0236,-0.13294 -0.0983,-0.13294 -0.0621,0 -0.10425,0.0365 -0.11454,0.0992 -0.0155,0.0945 -0.0235,0.0924 -0.16882,-0.0454 -0.0839,-0.0796 -0.187,-0.14458 -0.22909,-0.14452 -0.0421,5e-5 -0.2094,0.0716 -0.37179,0.15899 -0.46829,0.25195 -0.55916,0.2113 -0.26521,-0.11864 0.0977,-0.1097 0.1779,-0.22329 0.17817,-0.25244 0.001,-0.0995 -0.12559,-0.0907 -0.21904,0.0153 -0.0519,0.0589 -0.1481,0.10583 -0.21687,0.10583 -0.10587,0 -0.12358,0.0215 -0.12358,0.1499 0,0.0824 -0.0204,0.16931 -0.0454,0.19305 -0.025,0.0237 -0.17125,0.25777 -0.32509,0.52009 -0.15384,0.26232 -0.47132,0.76703 -0.70551,1.12158 -0.23419,0.35455 -0.56969,0.86557 -0.74557,1.13559 -0.45438,0.69762 -0.93603,1.28727 -1.43878,1.76141 -0.31635,0.29836 -0.46455,0.47832 -0.54352,0.66003 -0.0597,0.13741 -0.21572,0.49512 -0.34669,0.79491 -0.13096,0.29979 -0.45043,0.93345 -0.70994,1.40813 -0.2595,0.47467 -0.58083,1.10294 -0.71406,1.39616 -0.13324,0.29321 -0.36117,0.72246 -0.50653,0.95389 -0.14536,0.23142 -0.40162,0.63842 -0.56947,0.90443 -0.18396,0.29155 -0.39286,0.71553 -0.52593,1.06744 -0.27756,0.73402 -0.34053,0.8469 -0.77427,1.38788 -0.34362,0.42858 -0.36496,0.47176 -0.77602,1.57019 -0.29767,0.79541 -0.51558,1.28979 -0.73675,1.67149 -0.25604,0.44185 -0.34266,0.65111 -0.46881,1.13251 -0.0851,0.32477 -0.33436,1.09129 -0.5539,1.70337 -0.21953,0.61208 -0.51883,1.51467 -0.6651,2.00576 l -0.26596,0.89289 -0.22549,0.0302 c -0.12402,0.0166 -0.64205,0.0271 -1.15118,0.0233 -0.50913,-0.004 -0.95432,-0.005 -0.98932,-0.003 -0.035,0.002 -0.0636,0.047 -0.0636,0.10012 0,0.0824 -0.0217,0.0927 -0.14854,0.07 -0.10796,-0.0193 -0.18765,8.9e-4 -0.29175,0.0738 -0.11946,0.0837 -0.20806,0.10032 -0.5343599,0.10032 -0.34201,0 -0.40742,0.0136 -0.52057,0.10827 -0.11966,0.10012 -0.15587,0.10594 -0.48119,0.0773 -0.33173,-0.0292 -0.36101,-0.024 -0.51342,0.0904 -0.13294,0.0998 -0.19456,0.11658 -0.34717,0.0945 -0.27816,-0.0403 -0.58353,0.048 -0.85291,0.24666 -0.19782,0.14586 -0.27889,0.17718 -0.45188,0.17456 -0.11595,-0.002 -0.24882,-0.0171 -0.29527,-0.0341 l 0,-1e-5 z"
       id="path3396"
       inkscape:connector-curvature="0" />
    <path
       style="fill:#000000;stroke:none;stroke-width:1px;stroke-linecap:butt;stroke-linejoin:miter;stroke-opacity:1"
       d="m 23.728749,32.813199 0,-2.20303 0.13322,0 c 0.11947,0 0.93082,-0.11325 2.08705,-0.29131 0.24339,-0.0375 0.57795,-0.13245 0.81453,-0.23122 0.27386,-0.11434 0.5026,-0.17541 0.71965,-0.19215 l 0.31817,-0.0245 0,0.45886 c 0,0.41237 0.0103,0.46378 0.10182,0.50747 0.0995,0.0475 0.10181,0.0951 0.10181,2.11379 l 0,2.06517 -2.13812,0 -2.13813,0 0,-2.20304 z"
       id="path3398"
       inkscape:connector-curvature="0" />
    <path
       style="fill:#000000"
       d="m 40.681029,16.320309 c -0.68452,-0.16984 -0.99949,-0.31388 -1.41685,-0.64794 l -0.26349,-0.2109 1.4e-4,-0.63636 c 1.4e-4,-0.58706 0.008,-0.64075 0.10201,-0.69309 0.0908,-0.0506 0.10182,-0.10593 0.10182,-0.51058 l 0,-0.45385 1.15815,0.01 c 0.67556,0.006 0.89829,0.0158 0.53453,0.0241 -0.50732,0.0116 -0.62362,0.0267 -0.62362,0.081 0,0.0562 0.14079,0.0667 0.88734,0.0667 0.88145,0 0.88746,6.4e-4 0.90362,0.1022 0.0149,0.0937 0.0406,0.10147 0.30898,0.0934 0.25594,-0.008 0.29272,0.002 0.29272,0.0764 0,0.098 0.1563,0.15636 0.30545,0.11412 0.0786,-0.0223 0.10181,-0.008 0.10181,0.062 0,0.10584 0.14163,0.15801 0.32031,0.11799 0.0938,-0.021 0.159,0.002 0.2593,0.0915 0.0737,0.0657 0.15667,0.107 0.18444,0.0917 0.0278,-0.0153 0.0505,0.0129 0.0505,0.0626 0,0.10271 0.153,0.16247 0.30545,0.1193 0.0776,-0.022 0.10181,-0.008 0.10181,0.058 0,0.0478 0.0458,0.12387 0.10182,0.16909 0.14432,0.11653 0.14432,0.51939 0,0.63592 -0.0788,0.0636 -0.10182,0.13991 -0.10182,0.33761 0,0.31284 -0.0779,0.42193 -0.40765,0.57104 -0.13631,0.0616 -0.30925,0.18389 -0.38431,0.2717 l -0.13646,0.15964 -1.02484,-0.003 c -1.00961,-0.003 -1.0343,-0.005 -1.66119,-0.16054 z"
       id="path3400"
       inkscape:connector-curvature="0" />
  </g>
</svg>
